<svg id="visual" viewBox="0 0 900 600" width="900" height="600" xmlns="http://www.w3.org/2000/svg" xmlns:xlink="http://www.w3.org/1999/xlink" version="1.1"><g transform="translate(447.39823230142997 265.28666769931004)"><path d="M89.8 -108.6C135.3 -110.5 204.1 -117.6 224.7 -95.8C245.3 -74 217.7 -23.3 202.8 24C187.9 71.3 185.8 115.2 159.5 128.9C133.1 142.5 82.6 126 40.6 138.3C-1.4 150.6 -34.9 191.9 -54.5 185.9C-74 180 -79.5 126.8 -106.9 93.6C-134.2 60.3 -183.4 46.9 -208.2 16.8C-233 -13.3 -233.4 -60 -207.5 -85.7C-181.6 -111.3 -129.5 -115.8 -90.5 -116.8C-51.5 -117.9 -25.8 -115.4 -1.8 -112.6C22.2 -109.8 44.3 -106.6 89.8 -108.6" fill="none" stroke="#0000ba" stroke-width="6"></path></g></svg>