<svg id="visual" viewBox="0 0 1300 450" width="1300" height="450" xmlns="http://www.w3.org/2000/svg" xmlns:xlink="http://www.w3.org/1999/xlink" version="1.1"><g transform="translate(649.8000930985958 194.80903940077252)"><path d="M80.7 -112.1C123.3 -98.1 189.6 -107.5 210.6 -88.3C231.6 -69.1 207.4 -21.4 195.5 24.7C183.5 70.8 184 115.3 161.1 137C138.2 158.7 92.1 157.5 48.3 175.4C4.5 193.2 -36.9 230 -67.1 223.4C-97.3 216.9 -116.3 167.1 -145.8 128.7C-175.3 90.4 -215.3 63.6 -218.3 32.4C-221.2 1.2 -187 -34.3 -154.1 -55.4C-121.2 -76.5 -89.5 -83.3 -64 -105.1C-38.6 -127 -19.3 -164 -0.1 -163.8C19 -163.6 38 -126.2 80.7 -112.1" fill="#eae4ef"></path></g></svg>