<svg id="visual" viewBox="0 0 1500 900" width="1500" height="900" xmlns="http://www.w3.org/2000/svg" xmlns:xlink="http://www.w3.org/1999/xlink" version="1.1"><g transform="translate(752.8567348459476 443.4636970711233)"><path d="M134.2 -162.3C196.1 -108 283.7 -86.7 324.9 -30.9C366.2 24.9 361 115.2 314.5 168.2C268 221.3 180 237 97 267.8C14 298.5 -64 344.2 -114.9 322.7C-165.9 301.1 -189.9 212.3 -240.1 134.3C-290.3 56.3 -366.7 -10.9 -357.9 -63.4C-349 -115.9 -254.9 -153.7 -181 -205.9C-107.1 -258 -53.6 -324.5 -8.7 -314.1C36.2 -303.8 72.3 -216.5 134.2 -162.3" fill="#7c9eee"></path></g></svg>