<svg id="visual" viewBox="0 0 1500 1000" width="1500" height="1000" xmlns="http://www.w3.org/2000/svg" xmlns:xlink="http://www.w3.org/1999/xlink" version="1.1"><path d="M0 903L14.7 906.7C29.3 910.3 58.7 917.7 88 927C117.3 936.3 146.7 947.7 176.2 936.8C205.7 926 235.3 893 264.8 866.3C294.3 839.7 323.7 819.3 353 838C382.3 856.7 411.7 914.3 441 927.3C470.3 940.3 499.7 908.7 529.2 902.3C558.7 896 588.3 915 617.8 908.2C647.3 901.3 676.7 868.7 706 855.2C735.3 841.7 764.7 847.3 794 862.8C823.3 878.3 852.7 903.7 882.2 905.8C911.7 908 941.3 887 970.8 882.8C1000.3 878.7 1029.7 891.3 1059 891.8C1088.3 892.3 1117.7 880.7 1147 882.5C1176.3 884.3 1205.7 899.7 1235.2 904.7C1264.7 909.7 1294.3 904.3 1323.8 892.7C1353.3 881 1382.7 863 1412 851.2C1441.3 839.3 1470.7 833.7 1485.3 830.8L1500 828" fill="none" stroke="#03626f" stroke-width="4" stroke-linecap="round" stroke-linejoin="miter"></path></svg>