
        <svg xmlns="http://www.w3.org/2000/svg" xmlns:xlink="http://www.w3.org/1999/xlink" version="1.1" width="3162.3224141288892" 
        height="1015.4920801106437" viewBox="0 0 3162.3224141288892 1015.4920801106437">
			
			<g transform="scale(8.116120706444494) translate(10, 10)">
				<defs id="SvgjsDefs3820"></defs><g id="SvgjsG3821" featureKey="symbolFeature-0" transform="matrix(1.376993690349761,0,0,1.376993690349761,-21.177971387450363,-15.591069757195992)" fill="#155263"><path xmlns="http://www.w3.org/2000/svg" d="M80,37.8c-4.3,5.1-10.3,7.6-14.9,6.5c-0.7-0.2-1.5,0.1-1.9,0.7L55,55.3l19.7,22.1c1.5,1.8,1.2,4.4-0.5,5.8l-0.1,0.1  c-1.8,1.5-4.4,1.2-5.8-0.5L50.8,60.7L33.5,82.5c-1.5,1.8-4.1,2-5.8,0.5L27.6,83c-1.8-1.5-2-4.1-0.5-5.8l19.4-21.9l-6-7.6  c-0.5-0.7-1.4-0.9-2.2-0.6c-2.9,1.2-6.4,0.4-8.6-2.2l0-0.1L27.3,42L15.7,28.2c-0.5-0.6-0.4-1.4,0.2-1.9l0,0c0.6-0.5,1.4-0.4,1.9,0.2  l10.8,12.8c0.5,0.6,1.3,0.6,1.8,0.2l0,0c0.6-0.5,0.6-1.3,0.2-1.8L19.7,24.7c-0.5-0.6-0.4-1.4,0.2-1.9l0,0c0.6-0.5,1.4-0.4,1.9,0.2  l10.8,12.8c0.5,0.6,1.3,0.6,1.8,0.2l0,0c0.6-0.5,0.6-1.3,0.2-1.8L23.8,21.3c-0.5-0.6-0.4-1.4,0.2-1.9l0,0c0.6-0.5,1.4-0.4,1.9,0.2  l10.8,12.8c0.5,0.6,1.3,0.6,1.8,0.2l0,0c0.6-0.5,0.6-1.3,0.2-1.8L27.9,17.9c-0.5-0.6-0.4-1.4,0.2-1.9l0,0c0.6-0.5,1.4-0.4,1.9,0.2  L41.6,30l2.4,2.9l0,0.1c2.2,2.6,2.3,6.1,0.6,8.8c-0.4,0.7-0.4,1.6,0.2,2.3l5.8,6.5l8.2-9.2c0.5-0.6,0.6-1.3,0.3-2  c-1.8-4.4-0.5-10.7,3.8-15.8c5.5-6.6,13.8-8.7,18.5-4.8C86.2,22.7,85.6,31.2,80,37.8z"></path></g><g id="SvgjsG3822" featureKey="nameFeature-0" transform="matrix(1.3259461991090347,0,0,1.3259461991090347,115.00000126452083,0.10607570343681523)" fill="#155263"><path d="M50 0 c2.32 0 4.28 2.04 4.28 2.96 c0 0.28 -0.16 0.48 -0.56 0.48 c-8.16 0 -13.2 22.12 -25.84 25.04 c7.32 5.4 7.56 18.52 15.6 18.52 c0.32 0 0.52 0.16 0.52 0.36 c0 0.8 -2.04 2.64 -5.08 2.64 c-10.16 0 -6.52 -17.8 -16 -20.56 c-4.64 8.92 -9.48 16.8 -13.08 16.8 c-3 0 -5.12 -2.64 -5.12 -3.6 c0 -0.2 0.12 -0.32 0.32 -0.32 c7.4 0 18 -26.16 24.08 -37.32 c-2.68 -0.6 -6.16 -2.56 -10.24 -2.56 c-8.64 0 -13.12 6.52 -13.12 11.96 c0 3.96 2.32 7.32 7.08 7.32 c0.24 0 0.36 0.2 0.36 0.48 c0 0.88 -1.16 2.52 -4.2 2.52 c-5.76 0 -9 -4.84 -9 -10.24 c0 -6.76 5.16 -14.4 17.04 -14.4 c5.8 0 9.32 1.52 11.96 1.52 c1.08 0 2.08 -0.2 2.92 -0.96 c0.44 -0.36 0.68 -0.6 1 -0.6 c2.4 0 4.44 2.64 4.44 3.72 c0 0.28 -0.12 0.44 -0.44 0.44 c-1.92 0 -6.84 11.08 -12.28 21.88 c12 -0.84 17.72 -26.08 25.36 -26.08 z M63.08 26.2 c0.04 -0.04 0.16 -0.08 0.28 -0.08 c0.48 0 1.32 0.4 1.32 0.68 c0 0 0 0.04 -0.04 0.08 c-0.56 0.56 -7.04 13.12 -10.8 13.12 c-2.76 0 -5.36 -1.24 -5.84 -3.28 c-1.68 1.92 -3.4 3.28 -4.88 3.28 c-3.48 0 -4.84 -1.88 -4.84 -4.52 c0 -5.88 6.8 -15.48 11.44 -15.48 c2.92 0 4.08 1.76 4.48 3.28 c2.04 -3.44 1.88 -3.28 3.2 -3.28 c1.68 0 4.08 0.92 4.08 1.64 c0 -0.28 -7.4 12.6 -7.4 15.4 c0 0.28 0.08 0.44 0.28 0.44 c1.96 0 8.12 -10.68 8.72 -11.28 z M44.04 37.08 c1.8 0 8.8 -10.48 8.8 -11.92 c0 -0.4 0.04 -1.88 -0.96 -1.88 c-2.76 0 -8.2 10.56 -8.2 13.2 c0 0.4 0.12 0.6 0.36 0.6 z M73.24000000000001 26.2 c0.04 -0.04 0.16 -0.08 0.28 -0.08 c0.48 0 1.32 0.4 1.32 0.68 c0 0.04 0 0.04 -0.04 0.08 c-0.56 0.56 -7.04 13.12 -10.8 13.12 c-3.04 0 -5.92 -1.56 -5.92 -3.96 c0 -1.92 7.24 -14.76 8.12 -15.64 c0.28 -0.28 0.76 -0.4 1.36 -0.4 c1.68 0 4.08 0.92 4.08 1.64 c0 -0.28 -7.4 12.6 -7.4 15.4 c0 0.28 0.08 0.44 0.28 0.44 c1.92 0 8.12 -10.68 8.72 -11.28 z M72.16 10 c3.24 0 4.96 2.48 4.96 3.56 c0 0.32 -0.16 0.52 -0.44 0.52 c-1.04 0 -4.04 4.32 -4.04 4.48 c0 0.32 -0.32 0.44 -0.76 0.44 c-1.16 0 -3.24 -0.96 -3.24 -2.2 s1.68 -6.8 3.52 -6.8 z M94.28 26.240000000000002 c0.04 -0.04 0.16 -0.08 0.28 -0.08 c0.48 0 1.32 0.4 1.32 0.68 c0 0 0 0.04 -0.04 0.08 c-0.56 0.56 -7.04 13.12 -10.8 13.12 c-3.04 0 -5.92 -1.56 -5.92 -3.96 c0 -1.12 2.68 -6.44 5.12 -10.64 c-4.28 4.72 -10.92 13.6 -10.92 13.96 s-0.48 0.52 -1.16 0.52 c-1.64 0 -4.44 -0.92 -4.44 -2.04 c0 -1.96 8 -16.64 8.84 -17.52 c0.28 -0.28 0.76 -0.4 1.36 -0.4 c1.68 0 4.08 0.92 4.08 1.64 c0 0.08 -0.04 0.16 -0.12 0.24 c-0.32 0.32 -2.32 4 -4.28 7.96 c3.76 -4.84 8.32 -9.84 10.56 -9.84 c1.32 0 4.16 1.72 4.16 2.76 c0 0.16 -0.04 0.28 -0.16 0.4 c-0.6 0.56 -6.92 11.56 -6.92 13.96 c0 0.28 0.12 0.44 0.32 0.44 c1.96 0 8.12 -10.68 8.72 -11.28 z M163.04000000000002 0.03999999999999915 c0.08 -0.08 0.16 -0.12 0.24 -0.12 c0.32 0 0.52 0.72 0.52 1.68 c0 4.32 -3.52 6.32 -8.32 6.32 s-11 -1.64 -17.36 -3.08 c-4.28 2.36 -18.44 41.4 -26.44 41.4 c-3 0 -5.12 -2.68 -5.12 -3.6 c0 -0.2 0.08 -0.32 0.28 -0.32 c8.16 0 19.24 -30.32 24.68 -38.76 c-2.56 -0.44 -5.08 -0.72 -7.48 -0.72 c-10.76 0 -15.56 6.72 -15.56 12.2 c0 3.88 2.32 7.12 6.6 7.12 c0.2 0 0.32 0.12 0.32 0.32 c0 0.68 -1.4 2.24 -4.56 2.24 c-5.28 0 -8.16 -4.08 -8.16 -8.92 c0 -7.04 6.04 -15.68 19.56 -15.68 c7.36 0 20.28 2.6 29.88 2.6 c4.88 0 8.88 -0.64 10.92 -2.68 z M152.60000000000002 26.2 c0.04 -0.04 0.16 -0.08 0.28 -0.08 c0.48 0 1.32 0.4 1.32 0.68 c0 0 0 0.04 -0.04 0.08 c-0.56 0.56 -7.04 13.12 -10.8 13.12 c-2.76 0 -5.36 -1.24 -5.84 -3.28 c-1.68 1.92 -3.4 3.28 -4.88 3.28 c-3.48 0 -4.84 -1.88 -4.84 -4.52 c0 -5.88 6.8 -15.48 11.44 -15.48 c2.92 0 4.08 1.76 4.48 3.28 c2.04 -3.44 1.88 -3.28 3.2 -3.28 c1.68 0 4.08 0.92 4.08 1.64 c0 -0.28 -7.4 12.6 -7.4 15.4 c0 0.28 0.08 0.44 0.28 0.44 c1.96 0 8.12 -10.68 8.72 -11.28 z M133.56 37.08 c1.8 0 8.8 -10.48 8.8 -11.92 c0 -0.4 0.04 -1.88 -0.96 -1.88 c-2.76 0 -8.2 10.56 -8.2 13.2 c0 0.4 0.12 0.6 0.36 0.6 z M172.76 26.16 c0.04 -0.04 0.12 -0.08 0.24 -0.08 c0.44 0 1.36 0.44 1.36 0.72 c0 0.04 -0.04 0.04 -0.04 0.08 c-0.52 0.52 -4.92 10.64 -12.76 12.72 c-3.6 5.64 -7.64 10.44 -11.12 10.44 c-3.24 0 -5.04 -2.16 -5.04 -4.92 c0 -1.96 1.84 -4.16 4.92 -5.68 c-1.08 -0.6 -1.92 -1.68 -1.92 -3.68 c0 -3 6.64 -14.48 7.52 -15.36 c0.28 -0.28 0.76 -0.4 1.36 -0.4 c1.68 0 4.08 0.92 4.08 1.64 c0 -0.28 -7.4 12.6 -7.4 15.4 c0 0.28 0.08 0.44 0.28 0.44 c1.92 0 10.76 -16.08 11.56 -17.04 c0.24 -0.32 0.76 -0.4 1.36 -0.4 c1.68 0 4.08 0.88 4.08 1.6 c0 0.12 -0.04 0.2 -0.12 0.28 c-0.32 0.32 -3.48 7.44 -7.56 14.44 c5.32 -2.76 8.68 -9.68 9.2 -10.2 z M148.84 47.4 c1.48 0 3.72 -2.84 6.08 -6.64 c-3.88 1.64 -6.28 5.4 -6.28 6.4 c0 0.16 0.08 0.24 0.2 0.24 z M190.44 26.28 c0.04 -0.04 0.12 -0.08 0.24 -0.08 c0.48 0 1.36 0.4 1.36 0.68 l0 0 c-0.2 0 -3.32 6.72 -9.48 8.68 c-2.16 2.56 -4.92 4.44 -7.68 4.44 c-3.48 0 -4.92 -2.28 -4.92 -5.32 c0 -5.92 5.52 -14.68 12.32 -14.68 c3.36 0 4.72 2.08 4.72 4.88 c0 2.2 -0.8 4.84 -2.16 7.28 c3.4 -2.12 5.2 -5.48 5.6 -5.88 z M183.51999999999998 22.68 c-2.72 0 -8.28 9.28 -8.28 13.04 c0 0.96 0.36 1.56 1.24 1.56 c0.64 0 1.4 -0.48 2.2 -1.24 c-0.8 -0.16 -1.2 -0.64 -1.2 -1.08 c0 -1.16 1.44 -0.84 3 -1.12 c2.2 -3.08 4.12 -7.4 4.12 -9.64 c0 -0.92 -0.32 -1.52 -1.08 -1.52 z"></path></g><g id="SvgjsG3823" featureKey="sloganFeature-0" transform="matrix(1.258283559450318,0,0,1.258283559450318,114.63069384250092,79.70883420121822)" fill="#155263"><path d="M11.27 20 l-1.0254 -2.9102 l-5.9277 0 l-1.0254 2.9102 l-2.998 0 l5.1953 -14.111 l3.584 0 l5.1953 14.111 l-2.998 0 z M5.1758 14.6387 l4.209 0 l-2.0996 -5.9863 z M22.22655 20 c-1.9531 0 -3.0664 -1.1328 -3.0664 -3.1348 l0 -4.7461 l-1.9727 0 l0 -2.1582 l0.63477 0 c1.0645 0 1.6504 -0.41016 1.6504 -1.9141 l0 -1.3281 l2.5391 0 l0 3.2422 l2.0703 0 l0 2.1582 l-2.0703 0 l0 4.4434 c0 0.89844 0.43945 1.2988 1.1621 1.2988 l0.9082 0 l0 2.1387 l-1.8555 0 z M33.1298828125 17.2754 c0 1.2305 0.11719 2.0117 0.24414 2.4512 l0 0.27344 l-2.627 0 l-0.22461 -1.0938 c-0.75195 0.9082 -2.0508 1.2891 -3.2227 1.2891 c-1.582 0 -3.125 -0.70313 -3.125 -2.793 c0 -2.0801 1.5527 -2.7832 3.6523 -3.2422 l1.6504 -0.37109 c0.71289 -0.16602 0.9668 -0.41016 0.9668 -0.82031 c0 -0.98633 -0.89844 -1.2598 -1.6895 -1.2598 c-1.0156 0 -1.7871 0.40039 -1.9629 1.5332 l-2.4902 -0.44922 c0.41992 -2.0801 1.9434 -3.0273 4.6094 -3.0273 c2.0117 0 4.2188 0.5957 4.2188 3.623 l0 3.8867 z M28.1786828125 18.291 c1.3379 0 2.4121 -0.88867 2.4121 -2.8809 l-2.3828 0.67383 c-0.78125 0.18555 -1.3477 0.45898 -1.3477 1.1328 c0 0.72266 0.5957 1.0742 1.3184 1.0742 z M38.037075 20.19531 c-2.2559 0 -4.0039 -0.88867 -4.3652 -2.793 l2.3535 -0.66406 c0.30273 1.0742 1.0645 1.4941 2.0117 1.4941 c0.69336 0 1.4453 -0.21484 1.4258 -1.0059 c-0.0097656 -1.0449 -1.5918 -1.1328 -3.1836 -1.6992 c-1.2012 -0.41992 -2.3535 -1.0645 -2.3535 -2.7539 c0 -2.0605 1.709 -3.0078 3.9355 -3.0078 c1.9531 0 3.584 0.74219 3.9746 2.6563 l-2.1777 0.48828 c-0.30273 -0.9375 -0.9668 -1.2695 -1.7871 -1.2695 c-0.74219 0 -1.377 0.26367 -1.377 0.88867 c0 0.79102 1.1621 0.94727 2.4219 1.2891 c1.5527 0.41992 3.252 1.0938 3.252 3.2422 c0 2.3047 -1.9629 3.1348 -4.1309 3.1348 z M46.5673703125 20 c-1.9531 0 -3.0664 -1.1328 -3.0664 -3.1348 l0 -4.7461 l-1.9727 0 l0 -2.1582 l0.63477 0 c1.0645 0 1.6504 -0.41016 1.6504 -1.9141 l0 -1.3281 l2.5391 0 l0 3.2422 l2.0703 0 l0 2.1582 l-2.0703 0 l0 4.4434 c0 0.89844 0.43945 1.2988 1.1621 1.2988 l0.9082 0 l0 2.1387 l-1.8555 0 z M58.681203124999996 14.834 l-0.029297 0.67383 l-7.4414 0 c0.11719 1.6699 1.2305 2.4707 2.5684 2.4707 c1.0059 0 1.7871 -0.46875 2.168 -1.3574 l2.5781 0.38086 c-0.66406 2.0313 -2.4707 3.1934 -4.7266 3.1934 c-3.2422 0 -5.3613 -1.9141 -5.3613 -5.2148 s2.1777 -5.2344 5.2734 -5.2344 c2.8418 0 4.9609 1.5723 4.9707 5.0879 z M53.730503125 11.7383 c-1.2793 0 -2.168 0.5957 -2.4414 1.9336 l4.6094 0 c-0.14648 -1.2793 -1.0156 -1.9336 -2.168 -1.9336 z M67.9687375 20.19531 c-3.1934 0 -5.498 -1.9434 -5.498 -5.2246 c0 -3.2617 2.2852 -5.2051 5.498 -5.2051 c3.2324 0 5.5078 1.9434 5.5078 5.2051 c0 3.2813 -2.2852 5.2246 -5.5078 5.2246 z M67.9394375 17.959 c1.6309 0 2.7441 -1.1914 2.7441 -2.9883 s-1.1133 -2.9883 -2.7441 -2.9883 c-1.5723 0 -2.6758 1.1914 -2.6758 2.9883 s1.1035 2.9883 2.6758 2.9883 z M79.8681234375 7.246 c-0.92773 0 -2.1582 -0.039063 -2.1582 1.6406 l0 1.0742 l2.1582 0 l0 2.1582 l-2.1582 0 l0 7.8809 l-2.8027 0 l0 -7.8809 l-1.9629 0 l0 -2.1582 l1.9629 0 l0 -1.084 c0 -3.3887 2.0508 -3.877 4.9609 -3.877 l0 2.2461 z M93.1985859375 5.888999999999999 l2.9297 0 l0 14.111 l-2.9297 0 l0 -5.8008 l-5.9668 0 l0 5.8008 l-2.9297 0 l0 -14.111 l2.9297 0 l0 5.7617 l5.9668 0 l0 -5.7617 z M102.724596875 20.19531 c-3.1934 0 -5.498 -1.9434 -5.498 -5.2246 c0 -3.2617 2.2852 -5.2051 5.498 -5.2051 c3.2324 0 5.5078 1.9434 5.5078 5.2051 c0 3.2813 -2.2852 5.2246 -5.5078 5.2246 z M102.695296875 17.959 c1.6309 0 2.7441 -1.1914 2.7441 -2.9883 s-1.1133 -2.9883 -2.7441 -2.9883 c-1.5723 0 -2.6758 1.1914 -2.6758 2.9883 s1.1035 2.9883 2.6758 2.9883 z M120.8548828125 9.766 c2.1484 0 3.5352 1.0938 3.5352 3.1543 l0 7.0801 l-2.8125 0 l0 -6.2793 c0 -1.1816 -0.74219 -1.6992 -1.582 -1.6992 c-1.0059 0 -1.8945 0.57617 -1.8945 2.3145 l0 5.6641 l-2.8418 0 l0 -6.25 c0 -1.2012 -0.72266 -1.7285 -1.6113 -1.7285 c-0.97656 0 -1.8848 0.57617 -1.8848 2.4609 l0 5.5176 l-2.8027 0 l0 -10.039 l2.8027 0 l0 1.1816 c0.66406 -0.88867 1.6797 -1.377 2.9102 -1.377 c1.4551 0 2.5488 0.52734 3.0762 1.5039 c0.70313 -1.0059 1.7773 -1.5039 3.1055 -1.5039 z M135.204640625 14.834 l-0.029297 0.67383 l-7.4414 0 c0.11719 1.6699 1.2305 2.4707 2.5684 2.4707 c1.0059 0 1.7871 -0.46875 2.168 -1.3574 l2.5781 0.38086 c-0.66406 2.0313 -2.4707 3.1934 -4.7266 3.1934 c-3.2422 0 -5.3613 -1.9141 -5.3613 -5.2148 s2.1777 -5.2344 5.2734 -5.2344 c2.8418 0 4.9609 1.5723 4.9707 5.0879 z M130.253940625 11.7383 c-1.2793 0 -2.168 0.5957 -2.4414 1.9336 l4.6094 0 c-0.14648 -1.2793 -1.0156 -1.9336 -2.168 -1.9336 z"></path></g>
			</g>
		</svg>
	