
        <svg xmlns="http://www.w3.org/2000/svg" xmlns:xlink="http://www.w3.org/1999/xlink" version="1.1" width="3162.208309618669" 
        height="947.5655676792422" viewBox="0 0 3162.208309618669 947.5655676792422">
			
			<g transform="scale(8.11041548093341) translate(10, 10)">
				<defs id="SvgjsDefs4204"></defs><g id="SvgjsG4205" featureKey="PG4fjM-0" transform="matrix(1.0759235871916066,0,0,1.0759235871916066,-7.743551884955729,-5.3796102403528465)" fill="#0f35a1"><title xmlns="http://www.w3.org/2000/svg">Restaurant, Food and Drink</title><path xmlns="http://www.w3.org/2000/svg" d="M41.10132,54.7478a4.10007,4.10007,0,0,0,4.1001-4.1V47.14142c0-4.95191-.35926-12.7699-.49366-15.52149a1.04971,1.04971,0,0,0-1.05151-.998h-.05139a1.05288,1.05288,0,0,0-1.05286,1.053v14.3573a1.09214,1.09214,0,0,1-.87622,1.09484A1.05364,1.05364,0,0,1,40.446,46.0885V31.7312a1.09227,1.09227,0,0,0-.87622-1.09491,1.05368,1.05368,0,0,0-1.22973,1.03858v14.3573a1.09214,1.09214,0,0,1-.87622,1.09484,1.05364,1.05364,0,0,1-1.22974-1.03851V31.7312a1.09227,1.09227,0,0,0-.87622-1.09491,1.05368,1.05368,0,0,0-1.22974,1.03858v14.3573A1.092,1.092,0,0,1,33.252,47.127a1.05363,1.05363,0,0,1-1.22973-1.03851V31.67487a1.053,1.053,0,0,0-1.053-1.053h-.05139a1.04983,1.04983,0,0,0-1.05164.998c-.13428,2.75159-.49341,10.56958-.49341,15.52149v3.50641a4.09992,4.09992,0,0,0,4.09986,4.1,1.45583,1.45583,0,0,1,1.4259,1.18329c.95837,4.9.71277,11.08606-1.75012,33.94141C32.76245,93.454,34.87109,95,37.28711,95s4.52441-1.546,4.13843-5.1275c-2.46289-22.85541-2.7085-29.04145-1.75-33.94141A1.45565,1.45565,0,0,1,41.10132,54.7478Z"></path><path xmlns="http://www.w3.org/2000/svg" d="M50,81.09387a33.33394,33.33394,0,0,1-5.71863-.50171c.2638,2.63214.57068,5.56983.92652,8.87256.03308.30524.03942.58814.04846.87335A43.23522,43.23522,0,0,0,50,90.60571c1.20105,0,2.38721-.06213,3.56323-.15912a47.16211,47.16211,0,0,1,.35059-9.59051A33.43659,33.43659,0,0,1,50,81.09387Z"></path><path xmlns="http://www.w3.org/2000/svg" d="M50,5A42.80544,42.80544,0,0,0,29.7843,85.5351c.431-4.10334.776-7.57612,1.04529-10.54035a33.28537,33.28537,0,1,1,37.92456.29639c.01416.1261.02856.25659.04273.382.43884,3.90991.81738,7.31909.97155,10.09112A42.801,42.801,0,0,0,50,5Z"></path><path xmlns="http://www.w3.org/2000/svg" d="M70.62744,41.7619c0-6.1524-4.02515-11.13995-8.99023-11.14S52.647,35.60944,52.647,41.762c0,4.62165,2.41553,7.36841,4.44837,9.602,1.33239,1.46387,2.735,3.14752,2.70727,5.45368-.15,12.4848-3.19372,28.2539-2.46,33.23736.43286,2.9397,1.837,4.94489,4.29456,4.945,2.45752-.00012,3.86157-2.00537,4.29443-4.945.73377-4.98346-2.30981-20.75256-2.45984-33.23742-.02771-2.306,1.37488-3.98969,2.70716-5.45362C68.21191,49.13031,70.62744,46.38354,70.62744,41.7619Z"></path></g><g id="SvgjsG4206" featureKey="jxYttZ-0" transform="matrix(2.6858438384393084,0,0,2.6858438384393084,112.00000128071014,15.107433761141788)" fill="#0f35a1"><path d="M25 0 c1.16 0 2.14 1.02 2.14 1.48 c0 0.14 -0.08 0.24 -0.28 0.24 c-4.08 0 -6.6 11.06 -12.92 12.52 c3.66 2.7 3.78 9.26 7.8 9.26 c0.16 0 0.26 0.08 0.26 0.18 c0 0.4 -1.02 1.32 -2.54 1.32 c-5.08 0 -3.26 -8.9 -8 -10.28 c-2.32 4.46 -4.74 8.4 -6.54 8.4 c-1.5 0 -2.56 -1.32 -2.56 -1.8 c0 -0.1 0.06 -0.16 0.16 -0.16 c3.7 0 9 -13.08 12.04 -18.66 c-1.34 -0.3 -3.08 -1.28 -5.12 -1.28 c-4.32 0 -6.56 3.26 -6.56 5.98 c0 1.98 1.16 3.66 3.54 3.66 c0.12 0 0.18 0.1 0.18 0.24 c0 0.44 -0.58 1.26 -2.1 1.26 c-2.88 0 -4.5 -2.42 -4.5 -5.12 c0 -3.38 2.58 -7.2 8.52 -7.2 c2.9 0 4.66 0.76 5.98 0.76 c0.54 0 1.04 -0.1 1.46 -0.48 c0.22 -0.18 0.34 -0.3 0.5 -0.3 c1.2 0 2.22 1.32 2.22 1.86 c0 0.14 -0.06 0.22 -0.22 0.22 c-0.96 0 -3.42 5.54 -6.14 10.94 c6 -0.42 8.86 -13.04 12.68 -13.04 z M31.54 13.1 c0.02 -0.02 0.08 -0.04 0.14 -0.04 c0.24 0 0.66 0.2 0.66 0.34 c0 0 0 0.02 -0.02 0.04 c-0.28 0.28 -3.52 6.56 -5.4 6.56 c-1.38 0 -2.68 -0.62 -2.92 -1.64 c-0.84 0.96 -1.7 1.64 -2.44 1.64 c-1.74 0 -2.42 -0.94 -2.42 -2.26 c0 -2.94 3.4 -7.74 5.72 -7.74 c1.46 0 2.04 0.88 2.24 1.64 c1.02 -1.72 0.94 -1.64 1.6 -1.64 c0.84 0 2.04 0.46 2.04 0.82 c0 -0.14 -3.7 6.3 -3.7 7.7 c0 0.14 0.04 0.22 0.14 0.22 c0.98 0 4.06 -5.34 4.36 -5.64 z M22.02 18.54 c0.9 0 4.4 -5.24 4.4 -5.96 c0 -0.2 0.02 -0.94 -0.48 -0.94 c-1.38 0 -4.1 5.28 -4.1 6.6 c0 0.2 0.06 0.3 0.18 0.3 z M36.620000000000005 13.1 c0.02 -0.02 0.08 -0.04 0.14 -0.04 c0.24 0 0.66 0.2 0.66 0.34 c0 0.02 0 0.02 -0.02 0.04 c-0.28 0.28 -3.52 6.56 -5.4 6.56 c-1.52 0 -2.96 -0.78 -2.96 -1.98 c0 -0.96 3.62 -7.38 4.06 -7.82 c0.14 -0.14 0.38 -0.2 0.68 -0.2 c0.84 0 2.04 0.46 2.04 0.82 c0 -0.14 -3.7 6.3 -3.7 7.7 c0 0.14 0.04 0.22 0.14 0.22 c0.96 0 4.06 -5.34 4.36 -5.64 z M36.08 5 c1.62 0 2.48 1.24 2.48 1.78 c0 0.16 -0.08 0.26 -0.22 0.26 c-0.52 0 -2.02 2.16 -2.02 2.24 c0 0.16 -0.16 0.22 -0.38 0.22 c-0.58 0 -1.62 -0.48 -1.62 -1.1 s0.84 -3.4 1.76 -3.4 z M47.14 13.120000000000001 c0.02 -0.02 0.08 -0.04 0.14 -0.04 c0.24 0 0.66 0.2 0.66 0.34 c0 0 0 0.02 -0.02 0.04 c-0.28 0.28 -3.52 6.56 -5.4 6.56 c-1.52 0 -2.96 -0.78 -2.96 -1.98 c0 -0.56 1.34 -3.22 2.56 -5.32 c-2.14 2.36 -5.46 6.8 -5.46 6.98 s-0.24 0.26 -0.58 0.26 c-0.82 0 -2.22 -0.46 -2.22 -1.02 c0 -0.98 4 -8.32 4.42 -8.76 c0.14 -0.14 0.38 -0.2 0.68 -0.2 c0.84 0 2.04 0.46 2.04 0.82 c0 0.04 -0.02 0.08 -0.06 0.12 c-0.16 0.16 -1.16 2 -2.14 3.98 c1.88 -2.42 4.16 -4.92 5.28 -4.92 c0.66 0 2.08 0.86 2.08 1.38 c0 0.08 -0.02 0.14 -0.08 0.2 c-0.3 0.28 -3.46 5.78 -3.46 6.98 c0 0.14 0.06 0.22 0.16 0.22 c0.98 0 4.06 -5.34 4.36 -5.64 z M81.52000000000001 0.019999999999999574 c0.04 -0.04 0.08 -0.06 0.12 -0.06 c0.16 0 0.26 0.36 0.26 0.84 c0 2.16 -1.76 3.16 -4.16 3.16 s-5.5 -0.82 -8.68 -1.54 c-2.14 1.18 -9.22 20.7 -13.22 20.7 c-1.5 0 -2.56 -1.34 -2.56 -1.8 c0 -0.1 0.04 -0.16 0.14 -0.16 c4.08 0 9.62 -15.16 12.34 -19.38 c-1.28 -0.22 -2.54 -0.36 -3.74 -0.36 c-5.38 0 -7.78 3.36 -7.78 6.1 c0 1.94 1.16 3.56 3.3 3.56 c0.1 0 0.16 0.06 0.16 0.16 c0 0.34 -0.7 1.12 -2.28 1.12 c-2.64 0 -4.08 -2.04 -4.08 -4.46 c0 -3.52 3.02 -7.84 9.78 -7.84 c3.68 0 10.14 1.3 14.94 1.3 c2.44 0 4.44 -0.32 5.46 -1.34 z M76.30000000000001 13.1 c0.02 -0.02 0.08 -0.04 0.14 -0.04 c0.24 0 0.66 0.2 0.66 0.34 c0 0 0 0.02 -0.02 0.04 c-0.28 0.28 -3.52 6.56 -5.4 6.56 c-1.38 0 -2.68 -0.62 -2.92 -1.64 c-0.84 0.96 -1.7 1.64 -2.44 1.64 c-1.74 0 -2.42 -0.94 -2.42 -2.26 c0 -2.94 3.4 -7.74 5.72 -7.74 c1.46 0 2.04 0.88 2.24 1.64 c1.02 -1.72 0.94 -1.64 1.6 -1.64 c0.84 0 2.04 0.46 2.04 0.82 c0 -0.14 -3.7 6.3 -3.7 7.7 c0 0.14 0.04 0.22 0.14 0.22 c0.98 0 4.06 -5.34 4.36 -5.64 z M66.78 18.54 c0.9 0 4.4 -5.24 4.4 -5.96 c0 -0.2 0.02 -0.94 -0.48 -0.94 c-1.38 0 -4.1 5.28 -4.1 6.6 c0 0.2 0.06 0.3 0.18 0.3 z M86.38 13.08 c0.02 -0.02 0.06 -0.04 0.12 -0.04 c0.22 0 0.68 0.22 0.68 0.36 c0 0.02 -0.02 0.02 -0.02 0.04 c-0.26 0.26 -2.46 5.32 -6.38 6.36 c-1.8 2.82 -3.82 5.22 -5.56 5.22 c-1.62 0 -2.52 -1.08 -2.52 -2.46 c0 -0.98 0.92 -2.08 2.46 -2.84 c-0.54 -0.3 -0.96 -0.84 -0.96 -1.84 c0 -1.5 3.32 -7.24 3.76 -7.68 c0.14 -0.14 0.38 -0.2 0.68 -0.2 c0.84 0 2.04 0.46 2.04 0.82 c0 -0.14 -3.7 6.3 -3.7 7.7 c0 0.14 0.04 0.22 0.14 0.22 c0.96 0 5.38 -8.04 5.78 -8.52 c0.12 -0.16 0.38 -0.2 0.68 -0.2 c0.84 0 2.04 0.44 2.04 0.8 c0 0.06 -0.02 0.1 -0.06 0.14 c-0.16 0.16 -1.74 3.72 -3.78 7.22 c2.66 -1.38 4.34 -4.84 4.6 -5.1 z M74.42 23.7 c0.74 0 1.86 -1.42 3.04 -3.32 c-1.94 0.82 -3.14 2.7 -3.14 3.2 c0 0.08 0.04 0.12 0.1 0.12 z M95.22 13.14 c0.02 -0.02 0.06 -0.04 0.12 -0.04 c0.24 0 0.68 0.2 0.68 0.34 l0 0 c-0.1 0 -1.66 3.36 -4.74 4.34 c-1.08 1.28 -2.46 2.22 -3.84 2.22 c-1.74 0 -2.46 -1.14 -2.46 -2.66 c0 -2.96 2.76 -7.34 6.16 -7.34 c1.68 0 2.36 1.04 2.36 2.44 c0 1.1 -0.4 2.42 -1.08 3.64 c1.7 -1.06 2.6 -2.74 2.8 -2.94 z M91.75999999999999 11.34 c-1.36 0 -4.14 4.64 -4.14 6.52 c0 0.48 0.18 0.78 0.62 0.78 c0.32 0 0.7 -0.24 1.1 -0.62 c-0.4 -0.08 -0.6 -0.32 -0.6 -0.54 c0 -0.58 0.72 -0.42 1.5 -0.56 c1.1 -1.54 2.06 -3.7 2.06 -4.82 c0 -0.46 -0.16 -0.76 -0.54 -0.76 z"></path></g>
			</g>
		</svg>
	