
        <svg xmlns="http://www.w3.org/2000/svg" xmlns:xlink="http://www.w3.org/1999/xlink" version="1.1" width="3162.1621621621625" 
        height="1014.5931752354772" viewBox="0 0 3162.1621621621625 1014.5931752354772">
			
			<g transform="scale(8.108108108108109) translate(10, 10)">
				<defs id="SvgjsDefs2912"></defs><g id="SvgjsG2913" featureKey="symbolFeature-0" transform="matrix(1.1681456089508873,0,0,1.1681456089508873,-8.407284903666222,-5.840719689525948)" fill="#1dc2b8"><title xmlns="http://www.w3.org/2000/svg">Restaurant, Food and Drink</title><path xmlns="http://www.w3.org/2000/svg" d="M41.10132,54.7478a4.10007,4.10007,0,0,0,4.1001-4.1V47.14142c0-4.95191-.35926-12.7699-.49366-15.52149a1.04971,1.04971,0,0,0-1.05151-.998h-.05139a1.05288,1.05288,0,0,0-1.05286,1.053v14.3573a1.09214,1.09214,0,0,1-.87622,1.09484A1.05364,1.05364,0,0,1,40.446,46.0885V31.7312a1.09227,1.09227,0,0,0-.87622-1.09491,1.05368,1.05368,0,0,0-1.22973,1.03858v14.3573a1.09214,1.09214,0,0,1-.87622,1.09484,1.05364,1.05364,0,0,1-1.22974-1.03851V31.7312a1.09227,1.09227,0,0,0-.87622-1.09491,1.05368,1.05368,0,0,0-1.22974,1.03858v14.3573A1.092,1.092,0,0,1,33.252,47.127a1.05363,1.05363,0,0,1-1.22973-1.03851V31.67487a1.053,1.053,0,0,0-1.053-1.053h-.05139a1.04983,1.04983,0,0,0-1.05164.998c-.13428,2.75159-.49341,10.56958-.49341,15.52149v3.50641a4.09992,4.09992,0,0,0,4.09986,4.1,1.45583,1.45583,0,0,1,1.4259,1.18329c.95837,4.9.71277,11.08606-1.75012,33.94141C32.76245,93.454,34.87109,95,37.28711,95s4.52441-1.546,4.13843-5.1275c-2.46289-22.85541-2.7085-29.04145-1.75-33.94141A1.45565,1.45565,0,0,1,41.10132,54.7478Z"></path><path xmlns="http://www.w3.org/2000/svg" d="M50,81.09387a33.33394,33.33394,0,0,1-5.71863-.50171c.2638,2.63214.57068,5.56983.92652,8.87256.03308.30524.03942.58814.04846.87335A43.23522,43.23522,0,0,0,50,90.60571c1.20105,0,2.38721-.06213,3.56323-.15912a47.16211,47.16211,0,0,1,.35059-9.59051A33.43659,33.43659,0,0,1,50,81.09387Z"></path><path xmlns="http://www.w3.org/2000/svg" d="M50,5A42.80544,42.80544,0,0,0,29.7843,85.5351c.431-4.10334.776-7.57612,1.04529-10.54035a33.28537,33.28537,0,1,1,37.92456.29639c.01416.1261.02856.25659.04273.382.43884,3.90991.81738,7.31909.97155,10.09112A42.801,42.801,0,0,0,50,5Z"></path><path xmlns="http://www.w3.org/2000/svg" d="M70.62744,41.7619c0-6.1524-4.02515-11.13995-8.99023-11.14S52.647,35.60944,52.647,41.762c0,4.62165,2.41553,7.36841,4.44837,9.602,1.33239,1.46387,2.735,3.14752,2.70727,5.45368-.15,12.4848-3.19372,28.2539-2.46,33.23736.43286,2.9397,1.837,4.94489,4.29456,4.945,2.45752-.00012,3.86157-2.00537,4.29443-4.945.73377-4.98346-2.30981-20.75256-2.45984-33.23742-.02771-2.306,1.37488-3.98969,2.70716-5.45362C68.21191,49.13031,70.62744,46.38354,70.62744,41.7619Z"></path></g><g id="SvgjsG2914" featureKey="nameFeature-0" transform="matrix(1.3018120645496647,0,0,1.3018120645496647,120.00000124150473,20.10414497253541)" fill="#ffffff"><path d="M50 0 c2.32 0 4.28 2.04 4.28 2.96 c0 0.28 -0.16 0.48 -0.56 0.48 c-8.16 0 -13.2 22.12 -25.84 25.04 c7.32 5.4 7.56 18.52 15.6 18.52 c0.32 0 0.52 0.16 0.52 0.36 c0 0.8 -2.04 2.64 -5.08 2.64 c-10.16 0 -6.52 -17.8 -16 -20.56 c-4.64 8.92 -9.48 16.8 -13.08 16.8 c-3 0 -5.12 -2.64 -5.12 -3.6 c0 -0.2 0.12 -0.32 0.32 -0.32 c7.4 0 18 -26.16 24.08 -37.32 c-2.68 -0.6 -6.16 -2.56 -10.24 -2.56 c-8.64 0 -13.12 6.52 -13.12 11.96 c0 3.96 2.32 7.32 7.08 7.32 c0.24 0 0.36 0.2 0.36 0.48 c0 0.88 -1.16 2.52 -4.2 2.52 c-5.76 0 -9 -4.84 -9 -10.24 c0 -6.76 5.16 -14.4 17.04 -14.4 c5.8 0 9.32 1.52 11.96 1.52 c1.08 0 2.08 -0.2 2.92 -0.96 c0.44 -0.36 0.68 -0.6 1 -0.6 c2.4 0 4.44 2.64 4.44 3.72 c0 0.28 -0.12 0.44 -0.44 0.44 c-1.92 0 -6.84 11.08 -12.28 21.88 c12 -0.84 17.72 -26.08 25.36 -26.08 z M63.08 26.2 c0.04 -0.04 0.16 -0.08 0.28 -0.08 c0.48 0 1.32 0.4 1.32 0.68 c0 0 0 0.04 -0.04 0.08 c-0.56 0.56 -7.04 13.12 -10.8 13.12 c-2.76 0 -5.36 -1.24 -5.84 -3.28 c-1.68 1.92 -3.4 3.28 -4.88 3.28 c-3.48 0 -4.84 -1.88 -4.84 -4.52 c0 -5.88 6.8 -15.48 11.44 -15.48 c2.92 0 4.08 1.76 4.48 3.28 c2.04 -3.44 1.88 -3.28 3.2 -3.28 c1.68 0 4.08 0.92 4.08 1.64 c0 -0.28 -7.4 12.6 -7.4 15.4 c0 0.28 0.08 0.44 0.28 0.44 c1.96 0 8.12 -10.68 8.72 -11.28 z M44.04 37.08 c1.8 0 8.8 -10.48 8.8 -11.92 c0 -0.4 0.04 -1.88 -0.96 -1.88 c-2.76 0 -8.2 10.56 -8.2 13.2 c0 0.4 0.12 0.6 0.36 0.6 z M73.24000000000001 26.2 c0.04 -0.04 0.16 -0.08 0.28 -0.08 c0.48 0 1.32 0.4 1.32 0.68 c0 0.04 0 0.04 -0.04 0.08 c-0.56 0.56 -7.04 13.12 -10.8 13.12 c-3.04 0 -5.92 -1.56 -5.92 -3.96 c0 -1.92 7.24 -14.76 8.12 -15.64 c0.28 -0.28 0.76 -0.4 1.36 -0.4 c1.68 0 4.08 0.92 4.08 1.64 c0 -0.28 -7.4 12.6 -7.4 15.4 c0 0.28 0.08 0.44 0.28 0.44 c1.92 0 8.12 -10.68 8.72 -11.28 z M72.16 10 c3.24 0 4.96 2.48 4.96 3.56 c0 0.32 -0.16 0.52 -0.44 0.52 c-1.04 0 -4.04 4.32 -4.04 4.48 c0 0.32 -0.32 0.44 -0.76 0.44 c-1.16 0 -3.24 -0.96 -3.24 -2.2 s1.68 -6.8 3.52 -6.8 z M94.28 26.240000000000002 c0.04 -0.04 0.16 -0.08 0.28 -0.08 c0.48 0 1.32 0.4 1.32 0.68 c0 0 0 0.04 -0.04 0.08 c-0.56 0.56 -7.04 13.12 -10.8 13.12 c-3.04 0 -5.92 -1.56 -5.92 -3.96 c0 -1.12 2.68 -6.44 5.12 -10.64 c-4.28 4.72 -10.92 13.6 -10.92 13.96 s-0.48 0.52 -1.16 0.52 c-1.64 0 -4.44 -0.92 -4.44 -2.04 c0 -1.96 8 -16.64 8.84 -17.52 c0.28 -0.28 0.76 -0.4 1.36 -0.4 c1.68 0 4.08 0.92 4.08 1.64 c0 0.08 -0.04 0.16 -0.12 0.24 c-0.32 0.32 -2.32 4 -4.28 7.96 c3.76 -4.84 8.32 -9.84 10.56 -9.84 c1.32 0 4.16 1.72 4.16 2.76 c0 0.16 -0.04 0.28 -0.16 0.4 c-0.6 0.56 -6.92 11.56 -6.92 13.96 c0 0.28 0.12 0.44 0.32 0.44 c1.96 0 8.12 -10.68 8.72 -11.28 z M163.04000000000002 0.03999999999999915 c0.08 -0.08 0.16 -0.12 0.24 -0.12 c0.32 0 0.52 0.72 0.52 1.68 c0 4.32 -3.52 6.32 -8.32 6.32 s-11 -1.64 -17.36 -3.08 c-4.28 2.36 -18.44 41.4 -26.44 41.4 c-3 0 -5.12 -2.68 -5.12 -3.6 c0 -0.2 0.08 -0.32 0.28 -0.32 c8.16 0 19.24 -30.32 24.68 -38.76 c-2.56 -0.44 -5.08 -0.72 -7.48 -0.72 c-10.76 0 -15.56 6.72 -15.56 12.2 c0 3.88 2.32 7.12 6.6 7.12 c0.2 0 0.32 0.12 0.32 0.32 c0 0.68 -1.4 2.24 -4.56 2.24 c-5.28 0 -8.16 -4.08 -8.16 -8.92 c0 -7.04 6.04 -15.68 19.56 -15.68 c7.36 0 20.28 2.6 29.88 2.6 c4.88 0 8.88 -0.64 10.92 -2.68 z M152.60000000000002 26.2 c0.04 -0.04 0.16 -0.08 0.28 -0.08 c0.48 0 1.32 0.4 1.32 0.68 c0 0 0 0.04 -0.04 0.08 c-0.56 0.56 -7.04 13.12 -10.8 13.12 c-2.76 0 -5.36 -1.24 -5.84 -3.28 c-1.68 1.92 -3.4 3.28 -4.88 3.28 c-3.48 0 -4.84 -1.88 -4.84 -4.52 c0 -5.88 6.8 -15.48 11.44 -15.48 c2.92 0 4.08 1.76 4.48 3.28 c2.04 -3.44 1.88 -3.28 3.2 -3.28 c1.68 0 4.08 0.92 4.08 1.64 c0 -0.28 -7.4 12.6 -7.4 15.4 c0 0.28 0.08 0.44 0.28 0.44 c1.96 0 8.12 -10.68 8.72 -11.28 z M133.56 37.08 c1.8 0 8.8 -10.48 8.8 -11.92 c0 -0.4 0.04 -1.88 -0.96 -1.88 c-2.76 0 -8.2 10.56 -8.2 13.2 c0 0.4 0.12 0.6 0.36 0.6 z M172.76 26.16 c0.04 -0.04 0.12 -0.08 0.24 -0.08 c0.44 0 1.36 0.44 1.36 0.72 c0 0.04 -0.04 0.04 -0.04 0.08 c-0.52 0.52 -4.92 10.64 -12.76 12.72 c-3.6 5.64 -7.64 10.44 -11.12 10.44 c-3.24 0 -5.04 -2.16 -5.04 -4.92 c0 -1.96 1.84 -4.16 4.92 -5.68 c-1.08 -0.6 -1.92 -1.68 -1.92 -3.68 c0 -3 6.64 -14.48 7.52 -15.36 c0.28 -0.28 0.76 -0.4 1.36 -0.4 c1.68 0 4.08 0.92 4.08 1.64 c0 -0.28 -7.4 12.6 -7.4 15.4 c0 0.28 0.08 0.44 0.28 0.44 c1.92 0 10.76 -16.08 11.56 -17.04 c0.24 -0.32 0.76 -0.4 1.36 -0.4 c1.68 0 4.08 0.88 4.08 1.6 c0 0.12 -0.04 0.2 -0.12 0.28 c-0.32 0.32 -3.48 7.44 -7.56 14.44 c5.32 -2.76 8.68 -9.68 9.2 -10.2 z M148.84 47.4 c1.48 0 3.72 -2.84 6.08 -6.64 c-3.88 1.64 -6.28 5.4 -6.28 6.4 c0 0.16 0.08 0.24 0.2 0.24 z M190.44 26.28 c0.04 -0.04 0.12 -0.08 0.24 -0.08 c0.48 0 1.36 0.4 1.36 0.68 l0 0 c-0.2 0 -3.32 6.72 -9.48 8.68 c-2.16 2.56 -4.92 4.44 -7.68 4.44 c-3.48 0 -4.92 -2.28 -4.92 -5.32 c0 -5.92 5.52 -14.68 12.32 -14.68 c3.36 0 4.72 2.08 4.72 4.88 c0 2.2 -0.8 4.84 -2.16 7.28 c3.4 -2.12 5.2 -5.48 5.6 -5.88 z M183.51999999999998 22.68 c-2.72 0 -8.28 9.28 -8.28 13.04 c0 0.96 0.36 1.56 1.24 1.56 c0.64 0 1.4 -0.48 2.2 -1.24 c-0.8 -0.16 -1.2 -0.64 -1.2 -1.08 c0 -1.16 1.44 -0.84 3 -1.12 c2.2 -3.08 4.12 -7.4 4.12 -9.64 c0 -0.92 -0.32 -1.52 -1.08 -1.52 z"></path></g>
			</g>
		</svg>
	