<svg id="visual" viewBox="0 0 1280 300" width="1280" height="300" xmlns="http://www.w3.org/2000/svg" xmlns:xlink="http://www.w3.org/1999/xlink" version="1.1"><path d="M0 116L30.5 131.5C61 147 122 178 183 175.3C244 172.7 305 136.3 366 117C427 97.7 488 95.3 548.8 101.8C609.7 108.3 670.3 123.7 731.2 133C792 142.3 853 145.7 914 140.3C975 135 1036 121 1097 127.5C1158 134 1219 161 1249.5 174.5L1280 188L1280 301L1249.5 301C1219 301 1158 301 1097 301C1036 301 975 301 914 301C853 301 792 301 731.2 301C670.3 301 609.7 301 548.8 301C488 301 427 301 366 301C305 301 244 301 183 301C122 301 61 301 30.5 301L0 301Z" fill="#8dd0d5" stroke-linecap="round" stroke-linejoin="miter"></path></svg>