<svg id="visual" viewBox="0 0 1300 900" width="1300" height="900" xmlns="http://www.w3.org/2000/svg" xmlns:xlink="http://www.w3.org/1999/xlink" version="1.1"><path d="M0 31L18 30.2C36 29.3 72 27.7 108.2 31.7C144.3 35.7 180.7 45.3 216.8 47.2C253 49 289 43 325 39.8C361 36.7 397 36.3 433.2 38.5C469.3 40.7 505.7 45.3 541.8 44C578 42.7 614 35.3 650 33.5C686 31.7 722 35.3 758.2 40.2C794.3 45 830.7 51 866.8 51.2C903 51.3 939 45.7 975 43C1011 40.3 1047 40.7 1083.2 43C1119.3 45.3 1155.7 49.7 1191.8 48.5C1228 47.3 1264 40.7 1282 37.3L1300 34" fill="none" stroke-linecap="round" stroke-linejoin="miter" stroke="#177076" stroke-width="4"></path></svg>