<svg id="visual" viewBox="0 0 1500 1000" width="1500" height="1000" xmlns="http://www.w3.org/2000/svg" xmlns:xlink="http://www.w3.org/1999/xlink" version="1.1"><path d="M0 62L13.8 53C27.7 44 55.3 26 83.2 26C111 26 139 44 166.8 57.3C194.7 70.7 222.3 79.3 250 75.2C277.7 71 305.3 54 333.2 54.3C361 54.7 389 72.3 416.8 74.5C444.7 76.7 472.3 63.3 500 52C527.7 40.7 555.3 31.3 583.2 34.8C611 38.3 639 54.7 666.8 51.3C694.7 48 722.3 25 750 15.3C777.7 5.7 805.3 9.3 833.2 17.5C861 25.7 889 38.3 916.8 38.2C944.7 38 972.3 25 1000 25C1027.7 25 1055.3 38 1083.2 40C1111 42 1139 33 1166.8 25.8C1194.7 18.7 1222.3 13.3 1250 9.8C1277.7 6.3 1305.3 4.7 1333.2 18.5C1361 32.3 1389 61.7 1416.8 74.8C1444.7 88 1472.3 85 1486.2 83.5L1500 82" fill="none" stroke="#03626f" stroke-width="4" stroke-linecap="round" stroke-linejoin="miter"></path></svg>