<svg id="visual" viewBox="0 0 1280 200" width="1280" height="200" xmlns="http://www.w3.org/2000/svg" xmlns:xlink="http://www.w3.org/1999/xlink" version="1.1"><path d="M0 76L35.5 72C71 68 142 60 213.2 61.8C284.3 63.7 355.7 75.3 426.8 73.5C498 71.7 569 56.3 640 58.3C711 60.3 782 79.7 853.2 87.5C924.3 95.3 995.7 91.7 1066.8 88.3C1138 85 1209 82 1244.5 80.5L1280 79L1280 0L1244.5 0C1209 0 1138 0 1066.8 0C995.7 0 924.3 0 853.2 0C782 0 711 0 640 0C569 0 498 0 426.8 0C355.7 0 284.3 0 213.2 0C142 0 71 0 35.5 0L0 0Z" fill="#ebdd7d" stroke-linecap="round" stroke-linejoin="miter"></path></svg>