<svg id="visual" viewBox="0 0 1400 900" width="1400" height="900" xmlns="http://www.w3.org/2000/svg" xmlns:xlink="http://www.w3.org/1999/xlink" version="1.1"><path d="M0 173L21.2 172.2C42.3 171.3 84.7 169.7 127.2 173.7C169.7 177.7 212.3 187.3 254.8 184.7C297.3 182 339.7 167 382 152.7C424.3 138.3 466.7 124.7 509 121C551.3 117.3 593.7 123.7 636.2 118.5C678.7 113.3 721.3 96.7 763.8 96.3C806.3 96 848.7 112 891 131.2C933.3 150.3 975.7 172.7 1018 184C1060.3 195.3 1102.7 195.7 1145.2 179.5C1187.7 163.3 1230.3 130.7 1272.8 112.2C1315.3 93.7 1357.7 89.3 1378.8 87.2L1400 85L1400 0L1378.8 0C1357.7 0 1315.3 0 1272.8 0C1230.3 0 1187.7 0 1145.2 0C1102.7 0 1060.3 0 1018 0C975.7 0 933.3 0 891 0C848.7 0 806.3 0 763.8 0C721.3 0 678.7 0 636.2 0C593.7 0 551.3 0 509 0C466.7 0 424.3 0 382 0C339.7 0 297.3 0 254.8 0C212.3 0 169.7 0 127.2 0C84.7 0 42.3 0 21.2 0L0 0Z" fill="#8dd0d5" stroke-linecap="round" stroke-linejoin="miter"></path></svg>