<svg id="visual" viewBox="0 0 1300 900" width="1300" height="900" xmlns="http://www.w3.org/2000/svg" xmlns:xlink="http://www.w3.org/1999/xlink" version="1.1"><path d="M0 95L18 92.7C36 90.3 72 85.7 108.2 97.5C144.3 109.3 180.7 137.7 216.8 143C253 148.3 289 130.7 325 121.3C361 112 397 111 433.2 117.5C469.3 124 505.7 138 541.8 133.8C578 129.7 614 107.3 650 101.8C686 96.3 722 107.7 758.2 122.2C794.3 136.7 830.7 154.3 866.8 154.7C903 155 939 138 975 130.2C1011 122.3 1047 123.7 1083.2 130.8C1119.3 138 1155.7 151 1191.8 147.7C1228 144.3 1264 124.7 1282 114.8L1300 105" fill="none" stroke-linecap="round" stroke-linejoin="miter" stroke="#8dd0d5" stroke-width="4"></path></svg>